<svg width="37" height="37" viewBox="0 0 37 37" fill="none" xmlns="http://www.w3.org/2000/svg">
<rect width="37" height="37" rx="18.5" fill="#E6F2F0"/>
<path d="M9.75 21.4997V16.4997C9.75009 14.9748 10.3563 13.5125 11.4346 12.4342C12.5129 11.356 13.9751 10.7497 15.5 10.7497H18L18.0771 10.7536C18.455 10.7922 18.7498 11.1116 18.75 11.4997C18.75 11.8878 18.4551 12.2071 18.0771 12.2458L18 12.2497H15.5C14.3729 12.2497 13.2921 12.6979 12.4951 13.4948C11.6982 14.2917 11.2501 15.3726 11.25 16.4997V21.4997C11.25 22.6268 11.6981 23.7085 12.4951 24.5055C13.2921 25.3024 14.373 25.7497 15.5 25.7497H20.5C21.627 25.7497 22.7079 25.3024 23.5049 24.5055C24.3019 23.7085 24.75 22.6268 24.75 21.4997V18.9997C24.7502 18.5856 25.0859 18.2497 25.5 18.2497C25.9141 18.2497 26.2498 18.5856 26.25 18.9997V21.4997C26.25 23.0247 25.6438 24.4877 24.5654 25.5661C23.4871 26.6442 22.0248 27.2497 20.5 27.2497H15.5C13.9752 27.2497 12.5129 26.6442 11.4346 25.5661C10.3562 24.4877 9.75 23.0247 9.75 21.4997ZM25.583 13.1667C25.583 12.7025 25.3985 12.2576 25.0703 11.9294C24.7421 11.6013 24.2971 11.4167 23.833 11.4167C23.369 11.4168 22.9238 11.6013 22.5957 11.9294C22.2676 12.2575 22.083 12.7026 22.083 13.1667C22.083 13.6307 22.2676 14.0758 22.5957 14.404C22.9238 14.7321 23.369 14.9166 23.833 14.9167C24.2971 14.9167 24.7421 14.7321 25.0703 14.404C25.3985 14.0758 25.583 13.6308 25.583 13.1667ZM27.083 13.1667C27.083 14.0285 26.7411 14.8551 26.1318 15.4645C25.5223 16.074 24.695 16.4167 23.833 16.4167C22.9712 16.4166 22.1446 16.0739 21.5352 15.4645C20.9258 14.855 20.583 14.0285 20.583 13.1667C20.583 12.3048 20.9258 11.4783 21.5352 10.8688C22.1446 10.2594 22.9712 9.91675 23.833 9.91667C24.695 9.91667 25.5223 10.2593 26.1318 10.8688C26.7411 11.4783 27.083 12.3049 27.083 13.1667Z" fill="black"/>
</svg>
