<svg width="14" height="17" viewBox="0 0 14 17" fill="none" xmlns="http://www.w3.org/2000/svg">
<g clip-path="url(#clip0_42_846)">
<path d="M3.86011 12.5932C4.44057 13.2198 4.96887 13.8798 5.44118 14.5685C5.84444 15.2161 6.01255 15.6553 6.30726 16.4357C6.48801 16.8668 6.65136 16.9955 7.00256 16.9955C7.38526 16.9955 7.5589 16.7766 7.69304 16.438C7.97162 15.7011 8.19021 15.1386 8.53507 14.6072C9.21177 13.5812 10.0526 12.6694 10.8789 11.7931C11.1025 11.5451 12.5487 10.1003 13.1997 8.96031C13.1997 8.96031 13.9999 7.70801 13.9999 5.95905C13.9999 4.32306 13.2108 3.18842 13.2108 3.18842L10.9388 3.70379L9.55904 6.7819L9.21768 7.20635L9.14943 7.28324L9.05865 7.37949L8.89929 7.53324L8.67157 7.72607L7.4429 8.57394L4.37111 10.0762L3.86011 12.5932Z" fill="#34A853"/>
<path d="M0.689697 8.74977C1.43941 10.2002 2.88513 11.4753 3.86327 12.5942L9.05864 7.38148C9.05864 7.38148 8.3267 8.19229 6.999 8.19229C5.52008 8.19229 4.32532 7.19198 4.32532 5.93064C4.32532 5.06568 4.93968 4.47147 4.93968 4.47147L1.41294 5.2719L0.689697 8.74977Z" fill="#FBBC04"/>
<path d="M9.11666 0.268052C10.8422 0.739281 12.319 1.72857 13.2124 3.18737L9.06022 7.37845C9.06022 7.37845 9.67458 6.77349 9.67458 5.9139C9.67458 4.6232 8.39145 3.65897 7.00528 3.65897C5.69448 3.65897 4.94165 4.46844 4.94165 4.46844V1.82811L9.11666 0.268005V0.268052Z" fill="#4285F4"/>
<path d="M1.64136 2.1199C2.67194 1.07549 4.48538 0 6.98547 0C8.19844 0 9.11227 0.26973 9.11227 0.26973L4.93765 4.47077H1.97987L1.64136 2.1199Z" fill="#1A73E8"/>
<path d="M0.689719 8.74977C0.689719 8.74977 0 7.60572 0 5.94833C0 4.38188 0.718922 3.01261 1.64144 2.1199L4.94008 4.47114L0.689719 8.74977Z" fill="#EA4335"/>
</g>
<defs>
<clipPath id="clip0_42_846">
<rect width="14" height="17" fill="white"/>
</clipPath>
</defs>
</svg>
